<svg width="28" height="28" viewBox="0 0 28 28" fill="none" xmlns="http://www.w3.org/2000/svg">
<g clip-path="url(#clip0_1973_823)">
<path d="M25.4242 21.8207C25.0158 22.7718 24.5115 23.6787 23.9192 24.5274C23.127 25.6562 22.4789 26.4372 21.9796 26.8712C21.2055 27.5829 20.3754 27.9481 19.487 27.9685C18.8494 27.9685 18.0806 27.7871 17.1852 27.419C16.2868 27.0527 15.4614 26.8707 14.7066 26.8707C13.915 26.8707 13.0662 27.0527 12.158 27.419C11.2486 27.7871 10.5159 27.979 9.95591 27.9977C9.10425 28.0344 8.25491 27.6593 7.40675 26.8712C6.866 26.3987 6.18991 25.5902 5.37908 24.4446C4.50933 23.2207 3.79416 21.8021 3.23416 20.1839C2.6345 18.4368 2.3335 16.7446 2.3335 15.1066C2.3335 13.23 2.73891 11.6118 3.55091 10.2556C4.18966 9.16592 5.03841 8.30725 6.10125 7.67608C7.14394 7.05211 8.33368 6.71633 9.54875 6.70308C10.2254 6.70308 11.1127 6.9125 12.2157 7.32375C13.3153 7.73617 14.0212 7.94558 14.3309 7.94558C14.5619 7.94558 15.3465 7.70058 16.6759 7.21292C17.9336 6.76025 18.9947 6.573 19.8638 6.64708C22.2199 6.83725 23.9897 7.76592 25.1663 9.43892C23.0599 10.7152 22.0175 12.5032 22.0385 14.7968C22.0572 16.5836 22.7052 18.0705 23.9792 19.2506C24.5567 19.7989 25.2013 20.2224 25.9182 20.5228C25.7679 20.9608 25.6032 21.3937 25.4242 21.8207ZM20.0213 0.560583C20.0213 1.96058 19.5097 3.26842 18.4901 4.47825C17.2592 5.91733 15.7712 6.74858 14.1571 6.61733C14.1354 6.44122 14.1245 6.26394 14.1244 6.0865C14.1244 4.7425 14.7095 3.304 15.749 2.12742C16.2682 1.53183 16.9273 1.03658 17.7277 0.641667C18.5268 0.252583 19.2817 0.0373333 19.9922 0C20.0126 0.18725 20.0213 0.3745 20.0213 0.56V0.560583Z" fill="white"/>
</g>
<defs>
<clipPath id="clip0_1973_823">
<rect width="28" height="28" fill="white"/>
</clipPath>
</defs>
</svg>
