<svg width="46" height="32" viewBox="0 0 46 32" fill="none" xmlns="http://www.w3.org/2000/svg">
<rect x="1" y="0.617676" width="44" height="30.7647" rx="4.79412" fill="#1A1A1A" stroke="#333333"/>
<path d="M18.5293 30.6762L43.6764 23.0659V26.7056C43.6764 28.8985 41.8987 30.6762 39.7058 30.6762H18.5293Z" fill="#FD6020"/>
<path fill-rule="evenodd" clip-rule="evenodd" d="M38.9035 12.0583C40.287 12.0583 41.0479 12.6983 41.0479 13.9072C41.1171 14.8316 40.4945 15.6138 39.6644 15.756L41.5321 18.387H40.0795L38.4885 15.8271H38.3501V18.387H37.1742V12.0583H38.9035ZM38.3501 14.9738H38.696C39.4569 14.9738 39.8028 14.6183 39.8028 13.9783C39.8028 13.4094 39.4569 13.0539 38.696 13.0539H38.3501V14.9738ZM33.0929 18.387H36.4133V17.3204H34.2689V15.6138H36.3441V14.5471H34.2689V13.125H36.4133V12.0583H33.0929V18.387ZM29.6342 16.3249L28.0432 12.0583H26.7981L29.3575 18.5293H29.9801L32.5395 12.0583H31.2944L29.6342 16.3249ZM15.5919 15.2582C15.5919 17.036 16.9754 18.5293 18.7047 18.5293C19.2581 18.5293 19.7424 18.3871 20.2266 18.1737V16.7515C19.8807 17.1782 19.3965 17.4626 18.8431 17.4626C17.7363 17.4626 16.8371 16.6093 16.8371 15.4716V15.3294C16.7679 14.1916 17.6671 13.1961 18.7739 13.125C19.3273 13.125 19.8807 13.4094 20.2266 13.8361V12.4139C19.8115 12.1294 19.2581 12.0583 18.7739 12.0583C16.9754 11.9161 15.5919 13.4094 15.5919 15.2582ZM13.4475 14.476C12.7558 14.1916 12.5483 14.0494 12.5483 13.6938C12.6174 13.2672 12.9633 12.9116 13.3783 12.9828C13.7242 12.9828 14.0701 13.1961 14.3468 13.4805L14.9693 12.6272C14.4851 12.2005 13.8626 11.9161 13.24 11.9161C12.2716 11.845 11.4415 12.6272 11.3723 13.6227V13.6938C11.3723 14.5472 11.7182 15.0449 12.825 15.4005C13.1017 15.4716 13.3783 15.6138 13.655 15.756C13.8626 15.8982 14.0009 16.1116 14.0009 16.396C14.0009 16.8938 13.5859 17.3204 13.1708 17.3204H13.1017C12.5483 17.3204 12.064 16.9649 11.8565 16.4671L11.0956 17.2493C11.5107 18.0315 12.3407 18.4582 13.1708 18.4582C14.2776 18.5293 15.1769 17.676 15.246 16.5382V16.3249C15.1769 15.4716 14.831 15.0449 13.4475 14.476ZM9.43544 18.387H10.6114V12.0583H9.43544V18.387ZM3.9707 12.0583H5.70005H6.04592C7.70609 12.1295 9.0204 13.5516 8.95122 15.2583C8.95122 16.1827 8.53618 17.036 7.84444 17.676C7.22188 18.1737 6.46096 18.4582 5.70005 18.3871H3.9707V12.0583ZM5.49253 17.3204C6.04592 17.3915 6.66849 17.1782 7.08353 16.8226C7.49857 16.396 7.7061 15.8271 7.7061 15.1871C7.7061 14.6183 7.49857 14.0494 7.08353 13.6227C6.66849 13.2672 6.04592 13.0538 5.49253 13.125H5.14666V17.3204H5.49253Z" fill="white"/>
<path fill-rule="evenodd" clip-rule="evenodd" d="M23.7543 11.9116C22.0249 11.9116 20.5723 13.3338 20.5723 15.1826C20.5723 16.9604 21.9557 18.4537 23.7543 18.5248C25.5528 18.5959 26.9363 17.1026 27.0054 15.2538C26.9363 13.4049 25.5528 11.9116 23.7543 11.9116V11.9116Z" fill="#FD6020"/>
</svg>
