<svg width="46" height="32" viewBox="0 0 46 32" fill="none" xmlns="http://www.w3.org/2000/svg">
<rect x="1" y="0.617676" width="44" height="30.7647" rx="4.79412" fill="#1A1A1A" stroke="#333333"/>
<path fill-rule="evenodd" clip-rule="evenodd" d="M22.7371 22.2742C21.17 23.5951 19.1372 24.3925 16.9158 24.3925C11.9594 24.3925 7.94141 20.4223 7.94141 15.5249C7.94141 10.6274 11.9594 6.65723 16.9158 6.65723C19.1372 6.65723 21.17 7.45465 22.7371 8.77559C24.3042 7.45465 26.3371 6.65723 28.5584 6.65723C33.5148 6.65723 37.5328 10.6274 37.5328 15.5249C37.5328 20.4223 33.5148 24.3925 28.5584 24.3925C26.3371 24.3925 24.3042 23.5951 22.7371 22.2742Z" fill="#ED0006"/>
<path d="M28.5586 6.65723C33.5149 6.65724 37.533 10.6272 37.5332 15.5244C37.5332 20.4219 33.515 24.3926 28.5586 24.3926C26.3364 24.3926 24.3047 23.5924 22.7373 22.2705C24.6659 20.644 25.8906 18.2262 25.8906 15.5244C25.8905 12.8226 24.666 10.4047 22.7373 8.77832C24.3046 7.4567 26.3366 6.65723 28.5586 6.65723Z" fill="#F9A000"/>
<path fill-rule="evenodd" clip-rule="evenodd" d="M22.7371 22.2739C24.6667 20.6474 25.8903 18.2272 25.8903 15.5246C25.8903 12.822 24.6667 10.4018 22.7371 8.77536C20.8075 10.4018 19.584 12.822 19.584 15.5246C19.584 18.2272 20.8075 20.6474 22.7371 22.2739Z" fill="#FF5E00"/>
</svg>
