<svg width="46" height="32" viewBox="0 0 46 32" fill="none" xmlns="http://www.w3.org/2000/svg">
<rect x="1" y="0.617676" width="44" height="30.7647" rx="4.79412" fill="#1A1A1A" stroke="#333333"/>
<path fill-rule="evenodd" clip-rule="evenodd" d="M14.2284 20.989H11.5022L9.45797 12.9606C9.36094 12.5913 9.15492 12.2648 8.85187 12.1109C8.09557 11.7242 7.26218 11.4165 6.35303 11.2613V10.9522H10.7446C11.3507 10.9522 11.8053 11.4165 11.881 11.9557L12.9417 17.7469L15.6665 10.9522H18.3169L14.2284 20.989ZM19.8321 20.989H17.2575L19.3776 10.9522H21.9522L19.8321 20.989ZM25.2831 13.7327C25.3588 13.1921 25.8134 12.883 26.3438 12.883C27.1771 12.8054 28.085 12.9606 28.8426 13.346L29.2972 11.185C28.5395 10.8759 27.7062 10.7207 26.9499 10.7207C24.451 10.7207 22.6327 12.1109 22.6327 14.0404C22.6327 15.5083 23.9207 16.279 24.8298 16.7433C25.8134 17.2063 26.1922 17.5154 26.1165 17.9783C26.1165 18.6728 25.3588 18.9819 24.6025 18.9819C23.6934 18.9819 22.7842 18.7504 21.9522 18.3637L21.4976 20.526C22.4067 20.9114 23.3903 21.0666 24.2995 21.0666C27.1014 21.1429 28.8426 19.7539 28.8426 17.6693C28.8426 15.044 25.2831 14.8901 25.2831 13.7327ZM37.853 20.989L35.8088 10.9522H33.613C33.1584 10.9522 32.7038 11.2613 32.5523 11.7242L28.7668 20.989H31.4172L31.9462 19.5225H35.2027L35.5057 20.989H37.853ZM33.9918 13.6551L34.7481 17.4378H32.6281L33.9918 13.6551Z" fill="white"/>
</svg>
